<mxfile host="app.diagrams.net" agent="Mozilla/5.0 (Windows NT 10.0; Win64; x64) AppleWebKit/537.36 (KHTML, like Gecko) Chrome/128.0.0.0 Safari/537.36 Edg/128.0.0.0" version="24.7.14">
  <diagram name="Page-1" id="iCmLYVcZRt60v01j6GaN">
    <mxGraphModel dx="2066" dy="783" grid="1" gridSize="10" guides="1" tooltips="1" connect="1" arrows="1" fold="1" page="1" pageScale="1" pageWidth="850" pageHeight="1100" math="0" shadow="0">
      <root>
        <mxCell id="0" />
        <mxCell id="1" parent="0" />
        <mxCell id="BLHK9oRPTQaQ-hD0TTlN-1" value="Task Definition" style="sketch=0;outlineConnect=0;fontColor=#232F3E;gradientColor=none;fillColor=#ED7100;strokeColor=none;dashed=0;verticalLabelPosition=top;verticalAlign=bottom;align=center;html=1;fontSize=12;fontStyle=1;aspect=fixed;pointerEvents=1;shape=mxgraph.aws4.ecs_task;labelPosition=center;fontFamily=Roboto Mono;fontSource=https%3A%2F%2Ffonts.googleapis.com%2Fcss%3Ffamily%3DRoboto%2BMono;" vertex="1" parent="1">
          <mxGeometry x="130" y="120" width="37" height="48" as="geometry" />
        </mxCell>
        <mxCell id="BLHK9oRPTQaQ-hD0TTlN-4" style="edgeStyle=entityRelationEdgeStyle;rounded=0;orthogonalLoop=1;jettySize=auto;html=1;" edge="1" parent="1" source="BLHK9oRPTQaQ-hD0TTlN-2" target="BLHK9oRPTQaQ-hD0TTlN-3">
          <mxGeometry relative="1" as="geometry" />
        </mxCell>
        <mxCell id="BLHK9oRPTQaQ-hD0TTlN-6" style="edgeStyle=entityRelationEdgeStyle;rounded=0;orthogonalLoop=1;jettySize=auto;html=1;entryX=0;entryY=0.5;entryDx=0;entryDy=0;" edge="1" parent="1" source="BLHK9oRPTQaQ-hD0TTlN-2" target="BLHK9oRPTQaQ-hD0TTlN-5">
          <mxGeometry relative="1" as="geometry" />
        </mxCell>
        <mxCell id="BLHK9oRPTQaQ-hD0TTlN-8" style="edgeStyle=entityRelationEdgeStyle;rounded=0;orthogonalLoop=1;jettySize=auto;html=1;entryX=0;entryY=0.5;entryDx=0;entryDy=0;" edge="1" parent="1" source="BLHK9oRPTQaQ-hD0TTlN-2" target="BLHK9oRPTQaQ-hD0TTlN-7">
          <mxGeometry relative="1" as="geometry" />
        </mxCell>
        <mxCell id="BLHK9oRPTQaQ-hD0TTlN-2" value="Task definition is the place where you put all the information about your container" style="text;html=1;align=left;verticalAlign=middle;whiteSpace=wrap;rounded=0;fontFamily=Roboto Mono;fontSource=https%3A%2F%2Ffonts.googleapis.com%2Fcss%3Ffamily%3DRoboto%2BMono;dashed=1;strokeColor=default;" vertex="1" parent="1">
          <mxGeometry x="20" y="180" width="241.5" height="60" as="geometry" />
        </mxCell>
        <mxCell id="BLHK9oRPTQaQ-hD0TTlN-3" value="Containers that would be part of the task" style="text;html=1;align=left;verticalAlign=middle;whiteSpace=wrap;rounded=0;" vertex="1" parent="1">
          <mxGeometry x="360" y="138" width="230" height="30" as="geometry" />
        </mxCell>
        <mxCell id="BLHK9oRPTQaQ-hD0TTlN-5" value="How much resources these containers need" style="text;html=1;align=left;verticalAlign=middle;whiteSpace=wrap;rounded=0;" vertex="1" parent="1">
          <mxGeometry x="360" y="180" width="240" height="30" as="geometry" />
        </mxCell>
        <mxCell id="BLHK9oRPTQaQ-hD0TTlN-7" value="Other configurations" style="text;html=1;align=left;verticalAlign=middle;whiteSpace=wrap;rounded=0;" vertex="1" parent="1">
          <mxGeometry x="360" y="220" width="240" height="30" as="geometry" />
        </mxCell>
      </root>
    </mxGraphModel>
  </diagram>
</mxfile>
